# xmcd
# Track frame offsets:
# 150
# 1902
# 12245
# 14242
# 20382
# 24035
# 34635
# 37462
# 48465
# 52665
# 60930
# 72780
# 77107
# 90762
# 93635
# 111155
# 113022
# 126915
# 129232
# 134147
# 137330
#
# Disc length: 1990 seconds
# Revision: 6
# Processed by: cddbd v1.5.2PL0 Copyright (c) Steve Scherf et al.
# Submitted via: VisiTrax 2.11.3.279 - For more info visit www.synapsa.com
#
DISCID=0707c415
DTITLE=Johnny Cash - America A 200-Year Salute In Story And Song
DYEAR=1972
DGENRE=Country
TTITLE0=Opening Dialogue
TTITLE1=Paul Revere
TTITLE2=Begin West Movement
TTITLE3=The Road To Kaintuck
TTITLE4=To The Shining Mountains
TTITLE5=The Battle Of New Orleans
TTITLE6=Southwestward
TTITLE7=Remember The Alamo
TTITLE8=Opening The West
TTITLE9=Lorena
TTITLE10=The Gettysburg Address
TTITLE11=The West
TTITLE12=Big Foot
TTITLE13=Like A Young Colt
TTITLE14=Mister Garfield
TTITLE15=A Proud Land
TTITLE16=The Big Battle
TTITLE17=On Wheels And Wings
TTITLE18=Come Take A Trip In My Airship
TTITLE19=Reaching For The Stars
TTITLE20=These Are My People
EXTD=Sony Music Entertainment Inc.
EXTT0=
EXTT1=
EXTT2=
EXTT3=
EXTT4=
EXTT5=
EXTT6=
EXTT7=
EXTT8=
EXTT9=
EXTT10=
EXTT11=
EXTT12=
EXTT13=
EXTT14=
EXTT15=
EXTT16=
EXTT17=
EXTT18=
EXTT19=
EXTT20=
PLAYORDER=
